<svg width="12" height="14" viewBox="0 0 12 14" fill="none" xmlns="http://www.w3.org/2000/svg">
<path d="M0.666668 8.2C0.666668 7.07989 0.666668 6.51984 0.884655 6.09202C1.0764 5.71569 1.38236 5.40973 1.75869 5.21799C2.18651 5 2.74656 5 3.86667 5H8.13333C9.25344 5 9.81349 5 10.2413 5.21799C10.6176 5.40973 10.9236 5.71569 11.1153 6.09202C11.3333 6.51984 11.3333 7.0799 11.3333 8.2V8.2C11.3333 9.88016 11.3333 10.7202 11.0064 11.362C10.7187 11.9265 10.2598 12.3854 9.69531 12.673C9.05357 13 8.21349 13 6.53333 13H5.46667C3.78651 13 2.94643 13 2.3047 12.673C1.74021 12.3854 1.28127 11.9265 0.993648 11.362C0.666668 10.7202 0.666668 9.88016 0.666668 8.2V8.2Z" stroke="#33363F"/>
<path d="M8.66667 4.33333V3.66667C8.66667 2.19391 7.47276 1 6 1V1C4.52724 1 3.33334 2.19391 3.33334 3.66667V4.33333" stroke="#33363F" stroke-linecap="round"/>
</svg>
